<?xml version="1.0" standalone="no"?>
<!DOCTYPE svg PUBLIC "-//W3C//DTD SVG 20010904//EN"
 "http://www.w3.org/TR/2001/REC-SVG-20010904/DTD/svg10.dtd">
<svg version="1.0" xmlns="http://www.w3.org/2000/svg"
 width="260.000000pt" height="260.000000pt" viewBox="0 0 260.000000 260.000000"
 preserveAspectRatio="xMidYMid meet">
<metadata>
Created by potrace 1.14, written by Peter Selinger 2001-2017
</metadata>
<g transform="translate(0.000000,260.000000) scale(0.100000,-0.100000)"
fill="#000000" stroke="none">
<path d="M1247 2213 c-4 -3 -7 -16 -8 -27 0 -20 -1 -20 -9 2 -6 15 -18 22 -36
22 -19 0 -25 -4 -21 -15 3 -7 -3 -24 -13 -37 l-19 -23 -2 25 -1 25 -8 -25 c-8
-23 -8 -23 -9 8 -1 38 8 38 -116 -1 -58 -17 -66 -22 -45 -27 25 -6 25 -6 3
-12 -13 -3 -23 -11 -23 -17 0 -13 161 -4 170 10 3 4 31 8 62 8 67 0 148 11
148 20 0 3 44 6 98 6 109 0 167 11 141 25 -22 12 -182 40 -230 40 -34 0 -39
-3 -40 -22 l0 -23 -9 23 c-9 22 -21 28 -33 15z m-50 -60 c-3 -10 -5 -4 -5 12
0 17 2 24 5 18 2 -7 2 -21 0 -30z m43 -3 c0 -5 -5 -10 -11 -10 -5 0 -7 5 -4
10 3 6 8 10 11 10 2 0 4 -4 4 -10z"/>
<path d="M1152 2190 c0 -14 2 -19 5 -12 2 6 2 18 0 25 -3 6 -5 1 -5 -13z"/>
<path d="M1610 1995 c0 -149 2 -166 18 -171 9 -3 25 -10 34 -15 10 -5 24 -9
31 -9 19 0 49 35 40 45 -5 4 -2 5 5 1 8 -5 22 0 34 11 12 10 18 12 14 6 -5 -9
-2 -11 7 -7 9 3 13 13 9 26 -4 18 -3 19 17 9 18 -10 27 -7 66 26 50 42 53 49
26 58 -11 3 -22 12 -24 20 -3 7 -33 32 -66 54 -54 37 -61 39 -75 25 -18 -17
-21 -28 -6 -19 5 3 3 -7 -5 -21 -18 -34 -14 -41 24 -38 20 1 28 -2 25 -11 -3
-7 -15 -10 -29 -7 -17 3 -27 -1 -31 -12 -3 -9 -9 -14 -14 -11 -4 2 -12 -7 -18
-20 -11 -24 -10 -25 27 -25 22 0 41 5 44 13 2 6 8 8 13 4 13 -12 -17 -27 -57
-27 -35 0 -37 -2 -43 -40 -3 -23 -10 -39 -15 -36 -11 7 -12 227 -1 265 9 32
-10 71 -36 71 -12 0 -14 -28 -14 -165z m154 -31 c22 -8 20 -21 -3 -27 -15 -3
-19 0 -18 14 1 22 0 21 21 13z"/>
<path d="M1471 2133 l-23 -5 22 -15 c23 -16 90 -149 90 -177 0 -9 5 -16 11
-16 6 0 8 7 5 16 -3 9 -6 58 -6 110 l0 94 -37 -1 c-21 -1 -49 -4 -62 -6z"/>
<path d="M880 2115 l-25 -14 38 -1 c26 0 37 4 37 15 0 19 -17 19 -50 0z"/>
<path d="M1299 2115 c-3 -2 -38 -9 -79 -15 -41 -6 -81 -13 -89 -16 -8 -2 -87
-7 -175 -10 l-161 -6 -50 -38 c-77 -58 -95 -79 -95 -107 0 -20 -4 -24 -19 -20
-12 3 -27 -3 -38 -17 -29 -33 -65 -87 -61 -91 1 -2 60 -6 130 -10 98 -6 131
-5 143 5 13 11 14 10 9 -4 -4 -11 -1 -16 11 -16 9 0 13 5 10 10 -3 6 1 10 10
10 9 0 13 -4 10 -10 -5 -9 1 -12 21 -9 4 0 10 -3 13 -8 3 -4 14 -14 24 -22 15
-12 17 -12 11 3 -3 9 -9 16 -13 16 -3 0 -12 9 -19 21 -13 21 -13 21 12 3 14
-11 27 -24 29 -29 7 -17 -32 -158 -46 -167 -17 -11 -35 -10 -119 6 -40 8 -132
16 -203 17 l-130 3 -2 -24 c-3 -23 16 -34 245 -147 136 -66 257 -124 268 -127
20 -6 21 -5 10 34 -11 43 -4 64 26 84 26 16 57 -29 58 -81 0 -52 16 -66 18
-15 3 81 24 191 38 196 9 3 14 20 14 42 0 30 7 44 33 68 18 17 42 44 53 60 20
28 26 30 95 32 49 2 84 -2 103 -11 15 -8 44 -17 65 -21 20 -4 48 -13 64 -21
20 -10 27 -10 27 -2 0 7 11 2 24 -11 32 -29 56 -100 56 -165 l0 -52 -48 -7
c-66 -9 -91 -28 -89 -68 2 -28 5 -33 27 -32 14 1 40 2 58 3 42 1 38 22 -8 37
-25 8 -29 12 -15 17 9 4 30 7 46 7 l29 0 0 -108 c0 -112 -17 -199 -44 -221
-11 -10 -16 -8 -20 6 -3 10 -27 28 -53 40 -51 23 -94 24 -190 6 -57 -11 -79
-24 -88 -54 -5 -14 -12 -18 -26 -14 -27 9 -98 86 -99 107 0 9 -4 19 -9 22 -5
3 -19 27 -32 53 l-23 48 -6 -35 c-7 -48 -36 -53 -54 -8 -13 30 -27 39 -118 77
-57 24 -166 75 -243 113 -77 39 -156 76 -176 83 l-37 13 -6 -31 c-30 -143 -28
-342 3 -344 9 -1 28 7 41 18 18 13 20 19 10 19 -9 0 -21 -5 -27 -11 -18 -18
-35 22 -19 43 7 10 16 14 20 10 4 -4 17 -8 29 -9 12 -1 41 -5 65 -9 29 -4 42
-3 42 5 0 6 5 11 11 11 5 0 7 -4 4 -10 -4 -6 7 -10 24 -10 18 0 40 -9 52 -21
15 -15 28 -19 55 -15 27 5 36 2 41 -12 6 -14 8 -13 13 8 7 25 7 25 23 -10 9
-22 16 -28 16 -17 1 11 6 15 12 11 6 -3 9 -22 7 -40 -2 -19 -1 -34 3 -34 4 0
5 -8 2 -19 -3 -11 2 -21 11 -24 10 -4 13 -1 9 9 -3 8 1 14 8 14 11 0 11 3 -1
10 -12 7 -8 10 14 10 27 0 28 -2 23 -36 -4 -20 -15 -45 -26 -56 -29 -26 -127
-79 -134 -71 -4 3 -13 0 -22 -7 -8 -7 -24 -10 -35 -7 -11 3 -20 1 -20 -4 0 -5
-7 -9 -15 -9 -9 0 -27 -7 -40 -16 -14 -9 -34 -14 -45 -11 -11 3 -20 0 -20 -5
0 -7 -4 -7 -12 -1 -7 6 -21 13 -31 16 -41 15 84 -164 176 -250 167 -158 386
-243 626 -243 247 0 448 80 624 249 66 63 143 158 136 166 -14 13 -264 114
-270 108 -4 -5 -9 -17 -12 -28 -3 -12 -5 -6 -6 16 -1 34 -2 36 -83 68 -46 19
-87 37 -92 42 -24 21 7 16 86 -15 l86 -34 -4 131 c-3 73 -9 174 -15 224 -6 51
-7 98 -3 104 4 8 3 9 -4 5 -7 -4 -12 -3 -12 3 0 5 6 12 13 14 7 3 5 6 -5 6
-10 1 -18 -3 -18 -9 0 -18 -26 -11 -49 14 -18 19 -21 30 -16 60 4 20 10 36 14
36 9 0 6 69 -4 100 -7 21 -5 22 26 16 19 -3 41 -1 49 4 11 7 3 10 -30 10 -44
0 -47 2 -59 38 -7 20 -25 55 -40 77 -16 22 -26 46 -24 53 3 7 -4 12 -16 12
-11 0 -32 5 -48 11 -26 11 -27 12 -8 20 14 7 8 8 -23 5 -33 -3 -45 0 -54 14
-6 9 -18 16 -27 14 -9 -1 -33 -5 -53 -8 l-38 -5 0 105 c0 92 -5 116 -21 99z
m-359 -81 c0 -14 -4 -23 -9 -20 -5 3 -7 15 -4 26 7 28 13 25 13 -6z m127 -36
c-3 -8 -6 -5 -6 6 -1 11 2 17 5 13 3 -3 4 -12 1 -19z m-147 -25 c3 -3 -8 -16
-24 -29 -51 -45 -123 -22 -102 32 4 11 18 13 63 8 32 -4 60 -9 63 -11z m351
-5 c3 -5 9 -9 13 -9 3 1 6 -1 6 -4 0 -3 0 -15 0 -28 0 -12 -10 -28 -21 -35
-21 -13 -21 -12 -15 14 l7 28 -18 -23 c-10 -12 -37 -30 -60 -41 l-42 -19 -7
45 c-5 34 -11 44 -25 44 -23 0 -34 17 -21 33 12 15 174 10 183 -5z m-381 -103
c8 18 9 17 9 -7 1 -19 -4 -28 -14 -28 -8 0 -15 3 -15 8 0 4 -3 18 -5 32 l-6
25 12 -25 c11 -24 11 -24 19 -5z m-240 -29 c0 -9 -40 -13 -46 -5 -3 5 6 9 20
9 14 0 26 -2 26 -4z m70 -6 c0 -5 -12 -10 -27 -9 -25 0 -26 1 -8 9 27 12 35
12 35 0z m93 -17 c-7 -2 -19 -2 -25 0 -7 3 -2 5 12 5 14 0 19 -2 13 -5z m-166
-229 c-3 -3 -12 -4 -19 -1 -8 3 -5 6 6 6 11 1 17 -2 13 -5z m-120 -120 c-3 -3
-12 -4 -19 -1 -8 3 -5 6 6 6 11 1 17 -2 13 -5z m87 -209 c3 -8 1 -15 -4 -15
-6 0 -10 7 -10 15 0 8 2 15 4 15 2 0 6 -7 10 -15z m136 -6 c0 -5 0 -12 0 -16
0 -3 -11 -7 -25 -9 -22 -2 -34 13 -20 27 8 9 45 8 45 -2z m127 -35 c-3 -3 -12
-4 -19 -1 -8 3 -5 6 6 6 11 1 17 -2 13 -5z m88 -111 c-7 -15 -9 -13 -15 12 -3
17 -4 39 -1 50 4 17 7 14 14 -12 5 -18 6 -40 2 -50z m-81 35 c-3 -5 -10 -6
-15 -3 -13 9 -11 -9 4 -24 10 -11 9 -13 -3 -9 -20 6 -24 34 -8 52 13 14 32 1
22 -16z m544 -66 c9 -5 30 -15 46 -23 34 -16 40 -28 26 -49 -8 -12 -13 -13
-30 -2 -22 13 -84 15 -115 3 -28 -12 -55 5 -55 33 0 19 8 25 43 33 56 14 64
14 85 5z m29 2 c-3 -3 -12 -4 -19 -1 -8 3 -5 6 6 6 11 1 17 -2 13 -5z m-387
-56 c0 -30 121 -144 186 -177 59 -30 65 -31 128 -22 36 5 70 12 75 16 6 3 -1
-19 -14 -50 -14 -31 -25 -62 -25 -69 0 -16 -92 -133 -122 -157 -13 -10 -26
-13 -32 -8 -105 85 -162 133 -168 143 -3 6 -16 48 -27 93 -22 86 -31 294 -11
263 5 -8 10 -23 10 -32z"/>
<path d="M1752 1725 c0 -16 2 -22 5 -12 2 9 2 23 0 30 -3 6 -5 -1 -5 -18z"/>
<path d="M1790 1710 c0 -5 7 -7 15 -4 8 4 15 8 15 10 0 2 -7 4 -15 4 -8 0 -15
-4 -15 -10z"/>
<path d="M1898 1663 c12 -2 32 -2 45 0 12 2 2 4 -23 4 -25 0 -35 -2 -22 -4z"/>
<path d="M2088 1663 c7 -3 16 -2 19 1 4 3 -2 6 -13 5 -11 0 -14 -3 -6 -6z"/>
<path d="M1892 1530 c0 -14 2 -19 5 -12 2 6 2 18 0 25 -3 6 -5 1 -5 -13z"/>
<path d="M2068 1533 c7 -3 16 -2 19 1 4 3 -2 6 -13 5 -11 0 -14 -3 -6 -6z"/>
<path d="M2010 1496 c-14 -6 -34 -19 -45 -29 -22 -20 -78 -38 -83 -26 -2 4
-12 4 -23 2 -17 -5 -20 -12 -16 -37 2 -17 0 -41 -4 -54 -5 -14 -5 -94 0 -190
9 -159 9 -167 -10 -180 -10 -7 -19 -19 -19 -26 0 -13 139 -82 223 -112 51 -18
55 -15 101 91 32 74 34 81 19 97 -15 17 -15 18 0 18 16 0 43 37 34 46 -2 3
-16 0 -31 -5 -14 -6 -26 -8 -26 -5 0 12 35 64 43 64 4 0 6 4 2 9 -3 5 0 13 6
17 8 5 9 3 4 -7 -6 -10 -5 -11 3 -4 7 6 15 36 18 67 l6 56 -38 -1 c-32 -2 -39
1 -38 16 2 14 -1 15 -11 7 -11 -9 -14 -7 -12 9 1 21 33 36 43 20 11 -18 53 25
54 54 0 19 -4 27 -12 24 -7 -2 -12 -15 -10 -30 2 -16 -1 -25 -10 -23 -28 4
-38 17 -32 42 6 23 4 25 -22 19 -22 -5 -25 -4 -14 4 13 9 13 11 -2 11 -9 0
-24 -3 -34 -7 -16 -6 -16 -7 2 -14 15 -6 12 -8 -13 -8 -25 -1 -31 3 -27 14 4
8 11 15 18 15 6 0 4 5 -4 10 -20 13 -33 12 -24 -2 4 -7 3 -8 -4 -4 -7 4 -12 2
-12 -3 0 -6 -4 -11 -10 -11 -5 0 -10 7 -10 15 0 8 5 15 11 15 5 0 8 4 4 10 -3
5 5 9 17 8 50 -2 78 3 78 13 0 6 -10 9 -22 8 -13 -2 -27 -1 -33 3 -5 3 -21 1
-35 -6z m105 -126 c-3 -5 -12 -10 -18 -10 -7 0 -6 4 3 10 19 12 23 12 15 0z
m-49 -69 c-13 -20 -26 -11 -26 16 0 25 1 26 16 11 9 -9 13 -21 10 -27z m81
-56 c3 -25 1 -27 -8 -12 -8 13 -14 15 -23 7 -10 -8 -12 -5 -8 15 6 36 34 28
39 -10z m-85 3 c-7 -7 -12 -8 -12 -2 0 14 12 26 19 19 2 -3 -1 -11 -7 -17z
m15 -285 c-3 -10 -5 -2 -5 17 0 19 2 27 5 18 2 -10 2 -26 0 -35z m-30 -25 c-3
-7 -5 -2 -5 12 0 14 2 19 5 13 2 -7 2 -19 0 -25z"/>
<path d="M1892 1475 c0 -16 2 -22 5 -12 2 9 2 23 0 30 -3 6 -5 -1 -5 -18z"/>
<path d="M2152 1475 c-14 -16 -28 -23 -39 -19 -15 5 -16 4 -3 -5 8 -6 22 -11
31 -11 18 0 49 30 49 48 0 19 -15 14 -38 -13z"/>
<path d="M1196 1472 c-3 -6 9 -12 32 -14 20 -3 58 -11 84 -18 51 -15 71 -8 47
15 -17 18 -153 32 -163 17z"/>
<path d="M1258 1403 c-10 -2 -18 -8 -18 -13 0 -5 7 -7 15 -4 8 4 15 2 15 -4 0
-15 73 -24 82 -10 17 29 -36 46 -94 31z"/>
<path d="M2158 1303 c7 -3 16 -2 19 1 4 3 -2 6 -13 5 -11 0 -14 -3 -6 -6z"/>
<path d="M610 1190 c0 -5 6 -10 14 -10 8 0 18 5 21 10 3 6 -3 10 -14 10 -12 0
-21 -4 -21 -10z"/>
<path d="M2180 1135 c-7 -9 -8 -15 -2 -15 5 0 12 7 16 15 3 8 4 15 2 15 -2 0
-9 -7 -16 -15z"/>
<path d="M661 1113 c0 -13 -5 -23 -11 -23 -5 0 -11 -15 -11 -32 l-2 -33 -4 30
c-9 61 -21 44 -21 -32 -1 -77 -1 -77 12 -38 8 26 14 35 18 25 4 -8 7 5 9 30
l2 45 7 -45 c7 -42 7 -43 9 -10 1 27 4 31 11 20 8 -12 10 -10 10 8 0 15 -4 21
-12 16 -7 -4 -8 -3 -4 4 4 7 14 12 22 12 8 0 14 5 14 11 0 6 -8 8 -19 4 -14
-4 -21 0 -24 12 -4 14 -5 13 -6 -4z"/>
<path d="M611 924 c0 -11 3 -14 6 -6 3 7 2 16 -1 19 -3 4 -6 -2 -5 -13z"/>
</g>
</svg>
